<svg xmlns="http://www.w3.org/2000/svg" width="512" height="512" viewBox="0 0 512 512" role="img" aria-labelledby="title desc">
  <title id="title">Assessment Item Designer</title>
  <desc id="desc">A square checklist card with three items. The first item is checked.</desc>

  <rect width="512" height="512" fill="#FFFFFF"/>

  <rect x="64" y="64" width="384" height="384" rx="46" fill="#F9FBFD" stroke="#DDE8F2" stroke-width="10"/>

  <path d="M110 64h292c25.4 0 46 20.6 46 46v110H64V110c0-25.4 20.6-46 46-46z" fill="#173B63"/>

  <rect x="112" y="108" width="244" height="22" rx="11" fill="#FFFFFF"/>
  <rect x="112" y="149" width="184" height="14" rx="7" fill="#9FB7CF"/>

  <circle cx="136" cy="268" r="30" fill="#173B63"/>
  <path d="M119 268l12 13 25-29" fill="none" stroke="#FFFFFF" stroke-width="10" stroke-linecap="round" stroke-linejoin="round"/>
  <rect x="192" y="243" width="202" height="19" rx="9.5" fill="#173B63"/>
  <rect x="192" y="275" width="146" height="13" rx="6.5" fill="#B9CCE0"/>

  <circle cx="136" cy="344" r="29" fill="#FFFFFF" stroke="#91AAC5" stroke-width="9"/>
  <rect x="192" y="319" width="202" height="19" rx="9.5" fill="#91AAC5"/>
  <rect x="192" y="351" width="146" height="13" rx="6.5" fill="#D2DFEC"/>

  <circle cx="136" cy="420" r="29" fill="#FFFFFF" stroke="#91AAC5" stroke-width="9"/>
  <rect x="192" y="395" width="202" height="19" rx="9.5" fill="#91AAC5"/>
  <rect x="192" y="427" width="146" height="13" rx="6.5" fill="#D2DFEC"/>
</svg>
